<svg id="vector" xmlns="http://www.w3.org/2000/svg" width="20" height="20" viewBox="0 0 20 20"><defs><clipPath id="clip_path_0"><path d="M0,0h20v20h-20z"/></clipPath></defs><g id="g_0"><path fill="#666" d="M9.111,2.037A0.37,0.37 0,0 0,8.741 1.667L2.037,1.667A0.37,0.37 0,0 0,1.667 2.037v6.7a0.37,0.37 0,0 0,0.37 0.37h6.7a0.37,0.37 0,0 0,0.37 -0.37ZM8.367,8.367L2.408,8.367L2.408,2.408L8.367,2.408ZM8.367,8.367" stroke="#666" stroke-width="0.6" clip-path="url(#clip_path_0)"/><path fill="#666" d="M18.333,2.037a0.37,0.37 0,0 0,-0.37 -0.37h-6.7a0.37,0.37 0,0 0,-0.37 0.37v6.7a0.37,0.37 0,0 0,0.37 0.37h6.7a0.37,0.37 0,0 0,0.37 -0.37ZM17.593,8.367h-5.963L11.63,2.408h5.963ZM17.593,8.367" stroke="#666" stroke-width="0.6"/><path fill="#666" d="M9.111,11.259a0.37,0.37 0,0 0,-0.37 -0.37L2.037,10.889a0.37,0.37 0,0 0,-0.37 0.37v6.7a0.37,0.37 0,0 0,0.37 0.37h6.7a0.37,0.37 0,0 0,0.37 -0.37ZM8.37,17.559L2.408,17.559v-5.926L8.367,11.633ZM8.37,17.559" stroke="#666" stroke-width="0.6"/><path fill="#666" d="M18.333,11.259a0.37,0.37 0,0 0,-0.37 -0.37h-6.7a0.37,0.37 0,0 0,-0.37 0.37v6.7a0.37,0.37 0,0 0,0.37 0.37h6.7a0.37,0.37 0,0 0,0.37 -0.37ZM17.592,17.559h-5.963v-5.926h5.963ZM17.592,17.559" stroke="#666" stroke-width="0.6"/></g></svg>