<svg id="vector" xmlns="http://www.w3.org/2000/svg" width="18" height="18" viewBox="0 0 18 18"><defs><clipPath id="clip_path_0"><path d="M0,0h18v18h-18z"/></clipPath></defs><g id="g_0"><path fill="#969696" d="M9,9m-9,0a9,9 0,1 1,18 0a9,9 0,1 1,-18 0" clip-path="url(#clip_path_0)"/><path fill="#969696" d="M9,9m-7.2,0a7.2,7.2 0,1 1,14.4 0a7.2,7.2 0,1 1,-14.4 0" stroke="#000000" stroke-opacity="0" stroke-width="1"/><path fill="#000000" d="M9,9m-6.7,0a6.7,6.7 0,1 1,13.4 0a6.7,6.7 0,1 1,-13.4 0" fill-opacity="0" stroke="#fff" stroke-width="1"/><path fill="#fafafa" d="M9,6L9,6A0.9,0.9 0,0 1,9.9 6.9L9.9,11.1A0.9,0.9 0,0 1,9 12L9,12A0.9,0.9 0,0 1,8.1 11.1L8.1,6.9A0.9,0.9 0,0 1,9 6z"/></g></svg>