<svg id="vector" xmlns="http://www.w3.org/2000/svg" width="48.001" height="48" viewBox="0 0 48.001 48"><defs><linearGradient gradientUnits="userSpaceOnUse" x1="22.5469" y1="23.6533" x2="49.7615" y2="20.8729" id="gradient_0"><stop stop-color="#ffd653" offset="0"/><stop stop-color="#ff6500" offset="1"/></linearGradient><linearGradient gradientUnits="userSpaceOnUse" x1="-2.3276" y1="19.6656" x2="34.0649" y2="23.3833" id="gradient_1"><stop stop-color="#5597ff" offset="0"/><stop stop-color="#185ece" offset="1"/></linearGradient></defs><path fill="#dfe8f5" d="M48.001,24a24,24 0,1 1,-24 -24A24,24 0,0 1,48.001 24Z" id="path_0"/><g transform="translate(-3, 0)" id="g_0"><path fill="url(#gradient_0)" d="M24.5,38.5c-5.8,-8.7 -8,-15.4 -8.1,-20.3C16.2,5.2 31.2,5.2 34.1,13.8c8.1,-4.4 19.1,6.3 10,15.5C40.2,33.1 33.5,36.2 24.5,38.5Z"/></g><g transform="translate(2, 8.5) scale(0.75, 0.75)" id="g_1"><path fill="url(#gradient_1)" d="M25.9207,39.9804C31.7181,31.292 33.9093,24.6333 33.9519,19.7843 34.0649,6.7887 18.7455,6.7862 16.0393,15.5232c-8.0153,-4.4063 -19.034,6.2385 -9.9256,15.5074C9.5132,34.49 15.7149,37.7577 25.9207,39.9804Z"/></g></svg>