<svg id="vector" xmlns="http://www.w3.org/2000/svg" width="20" height="20" viewBox="0 0 20 20"><defs><linearGradient gradientUnits="userSpaceOnUse" x1="10" y1="1" x2="10" y2="19" id="gradient_0"><stop stop-color="#6aa4ff" offset="0"/><stop stop-color="#3378e4" offset="1"/></linearGradient></defs><path fill="url(#gradient_0)" d="M10,1L10,1A9,9 0,0 1,19 10L19,10A9,9 0,0 1,10 19L10,19A9,9 0,0 1,1 10L1,10A9,9 0,0 1,10 1z" id="path_0"/><path fill="#ffffff" d="M16.524,7.164C16.743,7.164 16.886,7.395 16.788,7.591L15.373,10.419C15.264,10.636 14.955,10.636 14.846,10.419L13.432,7.591C13.334,7.395 13.476,7.164 13.696,7.164H16.524Z" id="path_1"/><path fill="#000000" d="M5.051,7.537C5.609,6.254 6.644,5.239 7.937,4.706C9.231,4.173 10.681,4.164 11.981,4.681C13.281,5.198 14.328,6.201 14.901,7.477C15.475,8.753 14.983,9.065 14.983,9.479" fill-opacity="0" stroke-linecap="round" stroke="#ffffff" stroke-width="1" id="path_2"/><path fill="#ffffff" d="M3.577,12.836C3.358,12.836 3.216,12.605 3.314,12.409L4.728,9.581C4.837,9.364 5.147,9.364 5.256,9.581L6.67,12.409C6.768,12.605 6.625,12.836 6.406,12.836H3.577Z" id="path_3"/><path fill="#000000" d="M14.957,12.666C14.399,13.949 13.364,14.964 12.07,15.498C10.777,16.031 9.327,16.039 8.027,15.522C6.727,15.005 5.68,14.002 5.106,12.726C4.533,11.45 5.025,11.138 5.025,10.724" fill-opacity="0" stroke-linecap="round" stroke="#ffffff" stroke-width="1" id="path_4"/></svg>