<svg id="vector" xmlns="http://www.w3.org/2000/svg" width="28" height="28" viewBox="0 0 28 28"><defs><clipPath id="clip_path_0"><path d="M6.458,5.895h14.824v14.824h-14.824z"/></clipPath></defs><path fill="#185ece" d="M14,14m-14,0a14,14 0,1 1,28 0a14,14 0,1 1,-28 0" stroke="#000000" stroke-opacity="0" stroke-width="1" id="path_0"/><path fill="#000000" d="M14,14m-13.5,0a13.5,13.5 0,1 1,27 0a13.5,13.5 0,1 1,-27 0" fill-opacity="0" stroke="#fafafa" stroke-width="1" id="path_1"/><g id="g_0"><path fill="#fff" d="M13.981,15.82h3.916v0.692h-3.916ZM13.981,15.82" clip-path="url(#clip_path_0)"/><path fill="#fff" d="M19.694,8.865L8.148,8.865A0.385,0.385 0,0 0,7.763 9.249v9.309a0.385,0.385 0,0 0,0.385 0.385L19.694,18.943a0.385,0.385 0,0 0,0.385 -0.385L20.079,9.249A0.385,0.385 0,0 0,19.694 8.865ZM13.212,17.171L13.212,15.065a0.385,0.385 0,0 1,0.385 -0.385h4.685a0.385,0.385 0,0 1,0.385 0.385v2.106a0.385,0.385 0,0 1,-0.385 0.385L13.597,17.556A0.385,0.385 0,0 1,13.212 17.171ZM13.212,17.171"/><path fill="#fff" d="M13.771,8.095 L13.706,7.731A0.385,0.385 0,0 0,13.332 7.413L8.981,7.413a0.385,0.385 0,0 0,-0.379 0.318l-0.064,0.365ZM13.771,8.095"/></g></svg>