<svg id="vector" xmlns="http://www.w3.org/2000/svg" width="20" height="20" viewBox="0 0 20 20"><defs><clipPath id="clip_path_0"><path d="M0,0h20v20h-20z"/></clipPath><linearGradient gradientUnits="userSpaceOnUse" x1="10" y1="1" x2="16.93" y2="25.606" id="gradient_1"><stop stop-color="#5597ff" offset="0"/><stop stop-color="#185ece" offset="1"/></linearGradient></defs><g id="g_0"><path fill="url(#gradient_1)" d="M10,1a9,9 0,1 0,9 9A9.01,9.01 0,0 0,10 1ZM10,15.25a0.75,0.75 0,1 1,0.75 -0.75A0.75,0.75 0,0 1,10 15.25ZM11.187,10.481a0.753,0.753 0,0 0,-0.437 0.682L10.75,11.5a0.75,0.75 0,1 1,-1.5 0v-0.337A2.26,2.26 0,0 1,10.559 9.119a2.451,2.451 0,0 0,1.316 -1.744,1.875 1.875,0 1,0 -3.75,0 0.75,0.75 0,0 1,-1.5 0,3.375 3.375,0 0,1 6.75,0 3.908,3.908 0,0 1,-2.188 3.107Z" clip-path="url(#clip_path_0)"/></g></svg>