<svg id="vector" xmlns="http://www.w3.org/2000/svg" width="20" height="20" viewBox="0 0 20 20"><defs><clipPath id="clip_path_0"><path d="M0,0h20v20h-20z"/></clipPath><linearGradient gradientUnits="userSpaceOnUse" x1="16.0735" y1="4.017" x2="18.3269" y2="20.3663" id="gradient_1"><stop stop-color="#5597ff" offset="0"/><stop stop-color="#185ece" offset="1"/></linearGradient><linearGradient gradientUnits="userSpaceOnUse" x1="16.0735" y1="4.017" x2="18.3269" y2="20.3663" id="gradient_2"><stop stop-color="#5597ff" offset="0"/><stop stop-color="#185ece" offset="1"/></linearGradient><linearGradient gradientUnits="userSpaceOnUse" x1="16.0735" y1="4.017" x2="18.3269" y2="20.3663" id="gradient_3"><stop stop-color="#5597ff" offset="0"/><stop stop-color="#185ece" offset="1"/></linearGradient><linearGradient gradientUnits="userSpaceOnUse" x1="16.0735" y1="4.017" x2="18.3269" y2="20.3663" id="gradient_4"><stop stop-color="#5597ff" offset="0"/><stop stop-color="#185ece" offset="1"/></linearGradient></defs><g id="g_0"><path fill="url(#gradient_1)" d="M12.401,13.147a3.958,3.958 0,0 1,-4.8 0L4.018,16.726a9,9 0,0 0,11.96 0Z" clip-path="url(#clip_path_0)"/><path fill="url(#gradient_2)" d="M16.726,4.019l-3.579,3.579a3.958,3.958 0,0 1,0 4.8l3.579,3.579a9,9 0,0 0,0 -11.96Z"/><path fill="url(#gradient_3)" d="M10,1A8.934,8.934 0,0 0,4.016 3.274l3.579,3.579a3.958,3.958 0,0 1,4.8 0l3.579,-3.579A8.934,8.934 0,0 0,10 1Z"/><path fill="url(#gradient_4)" d="M6.853,7.599 L3.274,4.018a9,9 0,0 0,0 11.96l3.579,-3.579a3.958,3.958 0,0 1,0 -4.8Z"/></g></svg>